<!DOCTYPE svg PUBLIC "-//W3C//DTD SVG 1.1//EN" "http://www.w3.org/Graphics/SVG/1.1/DTD/svg11.dtd">
<!-- Uploaded to: SVG Repo, www.svgrepo.com, Transformed by: SVG Repo Mixer Tools -->
<svg width="800px" height="800px" viewBox="0 0 24.00 24.00" fill="none" xmlns="http://www.w3.org/2000/svg" transform="matrix(1, 0, 0, 1, 0, 0)" stroke="#000000">
<g id="SVGRepo_bgCarrier" stroke-width="0"/>
<g id="SVGRepo_tracerCarrier" stroke-linecap="round" stroke-linejoin="round" stroke="#CCCCCC" stroke-width="1.6799999999999997"/>
<g id="SVGRepo_iconCarrier"> <path d="M16.3426 21H21L17 15.5H21L16.881 10H21L14.0435 3L9.5 7.5M3 16L7.42372 11.9784C7.8038 11.6329 7.99384 11.4601 8.20914 11.3947C8.39876 11.337 8.60124 11.337 8.79086 11.3947C9.00616 11.4601 9.1962 11.6329 9.57628 11.9784L14 16M5 14.1818V19.4C5 19.9601 5 20.2401 5.10899 20.454C5.20487 20.6422 5.35785 20.7951 5.54601 20.891C5.75992 21 6.03995 21 6.6 21H10.4C10.9601 21 11.2401 21 11.454 20.891C11.6422 20.7951 11.7951 20.6422 11.891 20.454C12 20.2401 12 19.9601 12 19.4L12 14.1818" stroke="#000000" stroke-width="0.9600000000000002" stroke-linecap="round" stroke-linejoin="round"/> </g>
</svg>